<svg width="59" height="76" viewBox="0 0 59 76" fill="none" xmlns="http://www.w3.org/2000/svg">
<path opacity="0.75" d="M0.0830078 34.583V34.379C0.0830078 34.124 0.338008 33.767 0.593008 33.614L18.647 24.026C19.31 23.669 20.126 24.026 20.126 24.74C20.126 25.454 20.126 25.25 20.126 27.137C20.126 27.494 19.871 27.8 19.616 27.953L7.07001 34.481L19.565 40.754C19.82 40.907 20.075 41.213 20.075 41.519C20.075 43.406 20.075 43.253 20.075 43.916C20.075 44.63 19.259 44.987 18.596 44.63L0.593008 35.348C0.338008 35.246 0.0830078 34.889 0.0830078 34.583Z" fill="white"/>
<path opacity="0.75" d="M38.3838 41.519C38.3838 41.213 38.5878 40.907 38.8938 40.754L51.3888 34.481L38.9448 27.953C38.6388 27.8 38.4348 27.494 38.4348 27.137C38.4348 25.25 38.4348 25.454 38.4348 24.74C38.4348 24.026 39.2508 23.669 39.9138 24.026L57.9678 33.614C58.2228 33.767 58.4778 34.124 58.4778 34.379V34.583C58.4778 34.838 58.2228 35.195 57.9678 35.348L39.9138 44.63C39.2508 44.987 38.4348 44.63 38.4348 43.916C38.3838 43.253 38.3838 43.457 38.3838 41.519Z" fill="white"/>
<path d="M24.2572 75.791L10.9972 71.966C10.7422 71.915 10.5382 71.711 10.4362 71.507C10.3342 71.252 10.2832 70.997 10.3852 70.742C12.0172 65.438 14.8732 56.411 16.1482 55.289C17.6272 54.014 20.6362 54.524 22.3192 54.932C24.8692 55.595 28.1332 57.023 28.7962 58.91C29.4082 60.542 26.9602 69.773 25.4302 75.128C25.3792 75.383 25.1752 75.587 24.9712 75.74C24.7672 75.893 24.5122 75.893 24.2572 75.791Z" fill="white"/>
<path opacity="0.37" d="M23.9513 73.496C23.9003 73.496 23.7983 73.445 23.7473 73.343C23.2883 72.629 23.6453 69.926 24.8183 65.438C26.2463 59.879 25.1753 59.369 21.9113 57.941C21.8093 57.89 21.5543 57.788 21.6053 57.533C21.6053 57.431 21.7073 57.329 21.9113 57.278C22.6253 57.227 26.5523 58.043 27.1643 60.236C27.5723 61.766 24.5633 72.119 24.2063 73.292C24.1553 73.394 24.0533 73.496 23.9513 73.496C24.0023 73.496 24.0023 73.496 23.9513 73.496Z" fill="white"/>
<path d="M32.7742 9.644C31.0912 7.961 30.5302 5.309 31.2442 2.861L31.8562 0.718997C31.9582 0.310997 32.4172 0.0559973 32.7742 0.157997L44.3512 3.524C44.7592 3.626 44.9632 4.085 44.8102 4.493L44.3002 6.278C42.8722 11.327 36.9052 13.775 32.7742 9.644ZM33.9982 3.779C33.5902 5.87 34.7632 7.91 36.6502 8.471C38.5882 9.032 40.6282 7.91 41.3932 5.921L33.9982 3.779Z" fill="white"/>
<path d="M25.3791 52.943L22.2681 52.025C22.0131 51.923 21.8601 51.668 21.9111 51.413L32.6211 14.336C32.7231 14.081 32.9781 13.928 33.2331 13.979L36.3441 14.897C36.5991 14.999 36.7521 15.254 36.7011 15.509L25.9401 52.586C25.9401 52.841 25.6341 52.994 25.3791 52.943Z" fill="white"/>
</svg>
